<svg preserveAspectRatio="none" overflow="visible" style="display: block;" width="16.8" height="16.8" viewBox="0 0 16.8 16.8" fill="none" xmlns="http://www.w3.org/2000/svg">
<g id="delete">
<path id="icon" fill-rule="evenodd" clip-rule="evenodd" d="M9.74326 0.7C10.4964 0.700025 11.1655 1.18181 11.4037 1.89629L11.7045 2.8H15.05C15.2433 2.8 15.4 2.9567 15.4 3.15V3.85C15.4 4.0433 15.2433 4.2 15.05 4.2H14L13.423 13.4312C13.3537 14.5379 12.436 15.4 11.3271 15.4H5.47285C4.364 15.4 3.44625 14.5379 3.37695 13.4312L2.8 4.2H1.75C1.5567 4.2 1.4 4.0433 1.4 3.85V3.15C1.4 2.9567 1.5567 2.8 1.75 2.8H5.09551L5.39629 1.89629C5.63454 1.18181 6.30357 0.700025 7.05674 0.7H9.74326ZM6.65 6.3C6.4567 6.3 6.3 6.4567 6.3 6.65V11.55C6.3 11.7433 6.4567 11.9 6.65 11.9H7.35C7.5433 11.9 7.7 11.7433 7.7 11.55V6.65C7.7 6.4567 7.5433 6.3 7.35 6.3H6.65ZM9.45 6.3C9.2567 6.3 9.1 6.4567 9.1 6.65V11.55C9.1 11.7433 9.2567 11.9 9.45 11.9H10.15C10.3433 11.9 10.5 11.7433 10.5 11.55V6.65C10.5 6.4567 10.3433 6.3 10.15 6.3H9.45ZM7.05674 2.1C6.90611 2.10003 6.77215 2.19636 6.72451 2.33926L6.5707 2.8H10.2293L10.0755 2.33926C10.0279 2.19636 9.89389 2.10002 9.74326 2.1H7.05674Z" fill="white" fill-opacity="0.55"/>
</g>
</svg>
