<svg preserveAspectRatio="none" overflow="visible" style="display: block;" width="32" height="32" viewBox="0 0 32 32" fill="none" xmlns="http://www.w3.org/2000/svg">
<g id="warning">
<path id="icon" d="M16 2.66667C23.3638 2.66667 29.3333 8.6362 29.3333 16C29.3333 23.3638 23.3638 29.3333 16 29.3333C8.6362 29.3333 2.66667 23.3638 2.66667 16C2.66667 8.6362 8.6362 2.66667 16 2.66667ZM16 20C15.2636 20 14.6667 20.597 14.6667 21.3333C14.6667 22.0697 15.2636 22.6667 16 22.6667C16.7364 22.6667 17.3333 22.0697 17.3333 21.3333C17.3333 20.597 16.7364 20 16 20ZM15.3333 9.33333C14.9651 9.33333 14.6667 9.63181 14.6667 10V17.3333C14.6667 17.7015 14.9651 18 15.3333 18H16.6667C17.0349 18 17.3333 17.7015 17.3333 17.3333V10C17.3333 9.63181 17.0349 9.33333 16.6667 9.33333H15.3333Z" fill="white"/>
</g>
</svg>
